<svg width="1205" height="273" viewBox="0 0 1205 273" fill="none" xmlns="http://www.w3.org/2000/svg">
<path d="M7 216C4.8 216 3.1 215.4 1.9 214.2C0.700001 212.8 0.100001 211.1 0.100001 209.1V13.2C0.100001 11 0.700001 9.29999 1.9 8.09999C3.1 6.69999 4.8 5.99999 7 5.99999H83.2C98 5.99999 110.8 8.39998 121.6 13.2C132.6 18 141.1 25.2 147.1 34.8C153.1 44.2 156.1 56 156.1 70.2C156.1 84.4 153.1 96.2 147.1 105.6C141.1 115 132.6 122.1 121.6 126.9C110.8 131.7 98 134.1 83.2 134.1H30.1V209.1C30.1 211.1 29.4 212.8 28 214.2C26.8 215.4 25.1 216 22.9 216H7ZM29.8 108.9H81.7C96.5 108.9 107.6 105.6 115 99C122.4 92.4 126.1 82.8 126.1 70.2C126.1 57.8 122.5 48.2 115.3 41.4C108.1 34.6 96.9 31.2 81.7 31.2H29.8V108.9ZM234.58 216C232.58 216 230.88 215.4 229.48 214.2C228.28 212.8 227.68 211.1 227.68 209.1V67.2C227.68 65.2 228.28 63.5 229.48 62.1C230.88 60.7 232.58 60 234.58 60H248.38C250.38 60 252.08 60.7 253.48 62.1C254.88 63.5 255.58 65.2 255.58 67.2V80.4C259.58 73.6 265.08 68.5 272.08 65.1C279.08 61.7 287.48 60 297.28 60H309.28C311.28 60 312.88 60.7 314.08 62.1C315.28 63.3 315.88 64.9 315.88 66.9V79.2C315.88 81.2 315.28 82.8 314.08 84C312.88 85.2 311.28 85.8 309.28 85.8H291.28C280.48 85.8 271.98 89 265.78 95.4C259.58 101.6 256.48 110.1 256.48 120.9V209.1C256.48 211.1 255.78 212.8 254.38 214.2C252.98 215.4 251.28 216 249.28 216H234.58ZM441.616 219C426.416 219 413.716 216.1 403.516 210.3C393.316 204.5 385.516 196.5 380.116 186.3C374.716 175.9 371.716 164.1 371.116 150.9C370.916 147.5 370.816 143.2 370.816 138C370.816 132.6 370.916 128.3 371.116 125.1C371.716 111.7 374.716 99.9 380.116 89.7C385.716 79.5 393.616 71.5 403.816 65.7C414.016 59.9 426.616 57 441.616 57C456.616 57 469.216 59.9 479.416 65.7C489.616 71.5 497.416 79.5 502.816 89.7C508.416 99.9 511.516 111.7 512.116 125.1C512.316 128.3 512.416 132.6 512.416 138C512.416 143.2 512.316 147.5 512.116 150.9C511.516 164.1 508.516 175.9 503.116 186.3C497.716 196.5 489.916 204.5 479.716 210.3C469.516 216.1 456.816 219 441.616 219ZM441.616 195.9C454.016 195.9 463.916 192 471.316 184.2C478.716 176.2 482.716 164.6 483.316 149.4C483.516 146.4 483.616 142.6 483.616 138C483.616 133.4 483.516 129.6 483.316 126.6C482.716 111.4 478.716 99.9 471.316 92.1C463.916 84.1 454.016 80.1 441.616 80.1C429.216 80.1 419.216 84.1 411.616 92.1C404.216 99.9 400.316 111.4 399.916 126.6C399.716 129.6 399.616 133.4 399.616 138C399.616 142.6 399.716 146.4 399.916 149.4C400.316 164.6 404.216 176.2 411.616 184.2C419.216 192 429.216 195.9 441.616 195.9ZM563.481 273C561.481 273 559.881 272.3 558.681 270.9C557.281 269.7 556.581 268.1 556.581 266.1V255.9C556.581 253.9 557.281 252.2 558.681 250.8C559.881 249.6 561.481 249 563.481 249H567.681C574.881 249 580.181 247.6 583.581 244.8C586.981 242.2 589.181 238.7 590.181 234.3C591.381 229.9 591.981 224.9 591.981 219.3V66.9C591.981 64.9 592.581 63.3 593.781 62.1C595.181 60.7 596.881 60 598.881 60H613.581C615.581 60 617.181 60.7 618.381 62.1C619.781 63.3 620.481 64.9 620.481 66.9V219.6C620.481 230.2 618.781 239.5 615.381 247.5C612.181 255.5 606.881 261.7 599.481 266.1C592.081 270.7 581.981 273 569.181 273H563.481ZM596.481 30.9C594.481 30.9 592.781 30.3 591.381 29.1C590.181 27.7 589.581 26 589.581 24V7.8C589.581 5.79999 590.181 4.19999 591.381 2.99999C592.781 1.59999 594.481 0.899998 596.481 0.899998H615.681C617.681 0.899998 619.381 1.59999 620.781 2.99999C622.181 4.19999 622.881 5.79999 622.881 7.8V24C622.881 26 622.181 27.7 620.781 29.1C619.381 30.3 617.681 30.9 615.681 30.9H596.481ZM766.839 219C746.239 219 729.839 212.7 717.639 200.1C705.439 187.3 698.739 169.9 697.539 147.9C697.339 145.3 697.239 142 697.239 138C697.239 133.8 697.339 130.4 697.539 127.8C698.339 113.6 701.639 101.2 707.439 90.6C713.239 79.8 721.139 71.5 731.139 65.7C741.339 59.9 753.239 57 766.839 57C782.039 57 794.739 60.2 804.939 66.6C815.339 73 823.239 82.1 828.639 93.9C834.039 105.7 836.739 119.5 836.739 135.3V140.4C836.739 142.6 836.039 144.3 834.639 145.5C833.439 146.7 831.839 147.3 829.839 147.3H726.039C726.039 147.5 726.039 147.9 726.039 148.5C726.039 149.1 726.039 149.6 726.039 150C726.439 158.2 728.239 165.9 731.439 173.1C734.639 180.1 739.239 185.8 745.239 190.2C751.239 194.6 758.439 196.8 766.839 196.8C774.039 196.8 780.039 195.7 784.839 193.5C789.639 191.3 793.539 188.9 796.539 186.3C799.539 183.5 801.539 181.4 802.539 180C804.339 177.4 805.739 175.9 806.739 175.5C807.739 174.9 809.339 174.6 811.539 174.6H825.939C827.939 174.6 829.539 175.2 830.739 176.4C832.139 177.4 832.739 178.9 832.539 180.9C832.339 183.9 830.739 187.6 827.739 192C824.739 196.2 820.439 200.4 814.839 204.6C809.239 208.8 802.439 212.3 794.439 215.1C786.439 217.7 777.239 219 766.839 219ZM726.039 126.6H808.239V125.7C808.239 116.7 806.539 108.7 803.139 101.7C799.939 94.7 795.239 89.2 789.039 85.2C782.839 81 775.439 78.9 766.839 78.9C758.239 78.9 750.839 81 744.639 85.2C738.639 89.2 734.039 94.7 730.839 101.7C727.639 108.7 726.039 116.7 726.039 125.7V126.6ZM974.61 219C960.41 219 948.11 216.3 937.71 210.9C927.51 205.3 919.61 197.4 914.01 187.2C908.41 176.8 905.41 164.4 905.01 150C904.81 147 904.71 143 904.71 138C904.71 133 904.81 129 905.01 126C905.41 111.6 908.41 99.3 914.01 89.1C919.61 78.7 927.51 70.8 937.71 65.4C948.11 59.8 960.41 57 974.61 57C986.21 57 996.11 58.6 1004.31 61.8C1012.71 65 1019.61 69.1 1025.01 74.1C1030.41 79.1 1034.41 84.5 1037.01 90.3C1039.81 96.1 1041.31 101.6 1041.51 106.8C1041.71 108.8 1041.11 110.4 1039.71 111.6C1038.31 112.8 1036.61 113.4 1034.61 113.4H1020.21C1018.21 113.4 1016.71 113 1015.71 112.2C1014.71 111.2 1013.71 109.6 1012.71 107.4C1009.11 97.6 1004.21 90.7 998.01 86.7C991.81 82.7 984.11 80.7 974.91 80.7C962.91 80.7 953.11 84.4 945.51 91.8C938.11 99.2 934.11 111.1 933.51 127.5C933.31 134.7 933.31 141.7 933.51 148.5C934.11 165.1 938.11 177.1 945.51 184.5C953.11 191.7 962.91 195.3 974.91 195.3C984.11 195.3 991.81 193.3 998.01 189.3C1004.21 185.3 1009.11 178.4 1012.71 168.6C1013.71 166.4 1014.71 164.9 1015.71 164.1C1016.71 163.1 1018.21 162.6 1020.21 162.6H1034.61C1036.61 162.6 1038.31 163.2 1039.71 164.4C1041.11 165.6 1041.71 167.2 1041.51 169.2C1041.31 173.4 1040.41 177.7 1038.81 182.1C1037.21 186.5 1034.61 191 1031.01 195.6C1027.61 200 1023.31 204 1018.11 207.6C1012.91 211 1006.61 213.8 999.21 216C992.01 218 983.81 219 974.61 219ZM1177.04 216C1165.84 216 1156.74 213.9 1149.74 209.7C1142.74 205.3 1137.64 199.2 1134.44 191.4C1131.24 183.4 1129.64 174 1129.64 163.2V84H1106.24C1104.24 84 1102.54 83.4 1101.14 82.2C1099.94 80.8 1099.34 79.1 1099.34 77.1V66.9C1099.34 64.9 1099.94 63.3 1101.14 62.1C1102.54 60.7 1104.24 60 1106.24 60H1129.64V9.89999C1129.64 7.89999 1130.24 6.29999 1131.44 5.1C1132.84 3.69999 1134.54 2.99999 1136.54 2.99999H1150.64C1152.64 2.99999 1154.24 3.69999 1155.44 5.1C1156.84 6.29999 1157.54 7.89999 1157.54 9.89999V60H1194.74C1196.74 60 1198.34 60.7 1199.54 62.1C1200.94 63.3 1201.64 64.9 1201.64 66.9V77.1C1201.64 79.1 1200.94 80.8 1199.54 82.2C1198.34 83.4 1196.74 84 1194.74 84H1157.54V161.1C1157.54 170.5 1159.14 177.9 1162.34 183.3C1165.54 188.7 1171.24 191.4 1179.44 191.4H1197.74C1199.74 191.4 1201.34 192.1 1202.54 193.5C1203.94 194.7 1204.64 196.3 1204.64 198.3V209.1C1204.64 211.1 1203.94 212.8 1202.54 214.2C1201.34 215.4 1199.74 216 1197.74 216H1177.04Z" fill="#F1F1F1"/>
</svg>
