<svg width="147" height="40" viewBox="0 0 147 40" fill="none" xmlns="http://www.w3.org/2000/svg">
<line x1="48" y1="21" x2="-8.74228e-08" y2="21" stroke="#333333" stroke-width="2"/>
<path d="M76.932 8.938H82.236V32.5H76.932V22.504H68.024V32.5H62.72V8.938H68.024V17.948H76.932V8.938ZM86.4988 23.694C86.4988 22.1073 86.7368 20.7247 87.2127 19.546C87.7114 18.3447 88.3574 17.3473 89.1508 16.554C89.9441 15.7607 90.8508 15.16 91.8708 14.752C92.9134 14.344 93.9788 14.14 95.0668 14.14C97.6054 14.14 99.6114 14.922 101.085 16.486C102.558 18.0273 103.295 20.3053 103.295 23.32C103.295 23.6147 103.283 23.9433 103.261 24.306C103.238 24.646 103.215 24.952 103.193 25.224H91.7008C91.8141 26.2667 92.3014 27.094 93.1628 27.706C94.0241 28.318 95.1801 28.624 96.6308 28.624C97.5601 28.624 98.4668 28.5447 99.3508 28.386C100.257 28.2047 100.994 27.9893 101.561 27.74L102.241 31.854C101.969 31.99 101.606 32.126 101.153 32.262C100.699 32.398 100.189 32.5113 99.6228 32.602C99.0788 32.7153 98.4894 32.806 97.8548 32.874C97.2201 32.942 96.5854 32.976 95.9508 32.976C94.3414 32.976 92.9361 32.738 91.7348 32.262C90.5561 31.786 89.5701 31.14 88.7768 30.324C88.0061 29.4853 87.4281 28.4993 87.0428 27.366C86.6801 26.2327 86.4988 25.0087 86.4988 23.694ZM98.3988 21.756C98.3761 21.3253 98.2968 20.906 98.1608 20.498C98.0474 20.09 97.8548 19.7273 97.5828 19.41C97.3334 19.0927 97.0048 18.832 96.5968 18.628C96.2114 18.424 95.7241 18.322 95.1348 18.322C94.5681 18.322 94.0808 18.424 93.6728 18.628C93.2648 18.8093 92.9248 19.0587 92.6528 19.376C92.3808 19.6933 92.1654 20.0673 92.0068 20.498C91.8708 20.906 91.7688 21.3253 91.7008 21.756H98.3988ZM114.344 32.84C112.871 32.8173 111.67 32.6587 110.74 32.364C109.834 32.0693 109.108 31.6613 108.564 31.14C108.043 30.596 107.68 29.95 107.476 29.202C107.295 28.4313 107.204 27.57 107.204 26.618V6.932L112.27 6.116V25.598C112.27 26.0513 112.304 26.4593 112.372 26.822C112.44 27.1847 112.565 27.4907 112.746 27.74C112.95 27.9893 113.234 28.1933 113.596 28.352C113.959 28.5107 114.446 28.6127 115.058 28.658L114.344 32.84ZM125.102 32.84C123.629 32.8173 122.427 32.6587 121.498 32.364C120.591 32.0693 119.866 31.6613 119.322 31.14C118.801 30.596 118.438 29.95 118.234 29.202C118.053 28.4313 117.962 27.57 117.962 26.618V6.932L123.028 6.116V25.598C123.028 26.0513 123.062 26.4593 123.13 26.822C123.198 27.1847 123.323 27.4907 123.504 27.74C123.708 27.9893 123.991 28.1933 124.354 28.352C124.717 28.5107 125.204 28.6127 125.816 28.658L125.102 32.84ZM145.448 23.524C145.448 24.9293 145.244 26.2213 144.836 27.4C144.428 28.556 143.839 29.5533 143.068 30.392C142.297 31.208 141.368 31.8427 140.28 32.296C139.215 32.7493 138.013 32.976 136.676 32.976C135.361 32.976 134.16 32.7493 133.072 32.296C132.007 31.8427 131.089 31.208 130.318 30.392C129.547 29.5533 128.947 28.556 128.516 27.4C128.085 26.2213 127.87 24.9293 127.87 23.524C127.87 22.1187 128.085 20.838 128.516 19.682C128.969 18.526 129.581 17.54 130.352 16.724C131.145 15.908 132.075 15.2733 133.14 14.82C134.228 14.3667 135.407 14.14 136.676 14.14C137.968 14.14 139.147 14.3667 140.212 14.82C141.3 15.2733 142.229 15.908 143 16.724C143.771 17.54 144.371 18.526 144.802 19.682C145.233 20.838 145.448 22.1187 145.448 23.524ZM140.28 23.524C140.28 21.96 139.963 20.736 139.328 19.852C138.716 18.9453 137.832 18.492 136.676 18.492C135.52 18.492 134.625 18.9453 133.99 19.852C133.355 20.736 133.038 21.96 133.038 23.524C133.038 25.088 133.355 26.3347 133.99 27.264C134.625 28.1707 135.52 28.624 136.676 28.624C137.832 28.624 138.716 28.1707 139.328 27.264C139.963 26.3347 140.28 25.088 140.28 23.524Z" fill="#333333"/>
</svg>
