<svg width="60" height="53" viewBox="0 0 60 53" fill="none" xmlns="http://www.w3.org/2000/svg">
<path d="M39.375 26.75H48.75V34.25C48.75 38.3868 45.3868 41.75 41.25 41.75H40.3126C38.754 41.75 37.5 43.0039 37.5 44.5626V50.1874C37.5 51.746 38.7539 53 40.3126 53H41.25C51.6094 53 60 44.6094 60 34.25V6.125C60 3.01952 57.4805 0.5 54.375 0.5H39.375C36.2695 0.5 33.75 3.01952 33.75 6.125V21.125C33.75 24.2305 36.2695 26.75 39.375 26.75Z" fill="#333333"/>
<path d="M5.625 26.75H15V34.25C15 38.3868 11.6368 41.75 7.5 41.75H6.56256C5.004 41.75 3.75 43.0039 3.75 44.5626V50.1874C3.75 51.746 5.00388 53 6.56256 53H7.5C17.8594 53 26.25 44.6094 26.25 34.25V6.125C26.25 3.01952 23.7305 0.5 20.625 0.5H5.625C2.51952 0.5 0 3.01952 0 6.125V21.125C0 24.2305 2.51952 26.75 5.625 26.75Z" fill="#333333"/>
</svg>
