<svg width="121" height="120" viewBox="0 0 121 120" fill="none" xmlns="http://www.w3.org/2000/svg">
<g clip-path="url(#clip0_24172_105431)">
<path d="M118.826 23.5715L113.315 27.6749L112.053 35.6405L105.989 41.2877L111.243 46.0001L111.044 49.6133L106.365 49.9007L102.021 47.8793L102.395 50.0597L106.1 52.9853L103.848 57.2201L102.607 60.4445L92.4039 56.6675L90.4431 62.6213L85.9185 66.4679L84.6495 58.0307L83.3817 49.2959L79.3299 53.9051L71.5689 59.3681L67.1715 61.3583L62.1279 60.8345L67.1667 55.6325L71.8461 49.9019L76.7961 44.3945L81.1461 38.4011L85.4301 32.1269L89.1219 25.4855L92.7033 18.7961L95.5251 11.6273L102.936 11.4551L109.989 13.0643L115.859 16.9943L118.826 23.5715Z" fill="#5CFFE4"/>
<path d="M61.6364 61.2109L53.4554 62.1709L45.2264 64.1095L36.8432 65.4097L31.046 69.3655L25.226 73.1875L19.4576 77.0941L14.5262 81.2821L10.7408 86.4901L7.35618 92.0701L3.93018 99.8605L8.57298 107.16L16.238 110.669L24.518 108.8L24.881 100.82L28.298 93.5599L34.6406 93.2599L40.9406 92.5225L44.5832 95.6773L47.6102 96.4759L46.8062 91.6009L53.6216 90.5569L51.2702 87.0055L44.8586 84.2521L50.9018 84.9781C51.8262 84.8361 52.7324 84.4449 53.6204 83.8045C54.5084 83.1641 55.6084 82.1085 56.9204 80.6377L54.1088 79.7377L59.5766 75.5203L53.7302 73.7155L47.9366 71.9623L51.2666 69.3955L58.2902 67.2043L61.6364 61.2109Z" fill="#C58FFF"/>
<path d="M59.8502 64.2219C59.8112 64.3635 59.7608 64.5069 59.7302 64.6515C59.7247 64.6737 59.7179 64.6956 59.7098 64.7169C59.6324 64.7931 59.4404 65.0325 59.393 65.0889L58.559 66.0771L57.6716 67.1289C56.777 67.4475 55.8596 67.7451 54.9908 68.1213C54.7508 68.1267 54.503 68.1615 54.2708 68.1777L52.061 68.3349C50.7122 68.4309 49.8458 69.1485 48.7652 69.8871C48.462 70.0955 48.1594 70.3027 47.8574 70.5087C47.7374 70.5909 47.2616 70.9053 47.2574 70.9059C46.9646 71.0181 46.676 71.1459 46.3856 71.2611L44.2856 72.1173C44.2478 72.1335 44.1896 72.1539 44.1302 72.1773L44.1014 72.1827L41.9114 72.5769C41.2976 72.6879 40.5686 72.7431 39.9914 72.9861C39.3656 73.2507 38.951 73.8765 38.522 74.3799C38.0708 74.9091 37.5974 75.4263 37.166 75.9717C36.5114 76.7967 36.155 77.9475 35.7008 78.8955C35.2022 79.9317 34.2008 80.7111 33.71 81.7383C33.641 81.7887 33.5738 81.8529 33.5114 81.9027L32.5592 82.6683C32.0612 83.0683 31.563 83.4683 31.0646 83.8683C30.4136 84.3921 31.0364 84.8523 31.6274 84.8607C32.7874 84.8783 33.9462 84.8951 35.1038 84.9111C35.2958 84.9111 35.5448 84.9567 35.7428 84.9255C36.3746 85.0707 37.0244 85.1655 37.6628 85.2807C38.2406 85.3869 38.8178 85.5129 39.3986 85.6005C39.9608 85.6869 40.4786 85.5567 41.0186 85.4337C41.9046 85.2313 42.7908 85.0301 43.6772 84.8301C44.5544 85.1373 45.4304 85.4443 46.3052 85.7511C47.1452 86.0445 47.8802 86.4981 48.6596 86.9301C49.181 87.2193 49.6952 87.5373 50.2304 87.8013L50.258 87.8139C50.2577 87.8241 50.2598 87.8341 50.264 87.8433C50.357 88.0401 50.5232 88.2279 50.645 88.4079L51.9134 90.2931C49.2176 90.7383 46.5272 91.1235 43.7918 91.3491C42.2318 91.4775 40.5758 91.3815 39.0518 91.7199C38.0726 91.9371 37.0994 92.1873 36.1232 92.4213L35.8268 92.4927C35.3996 92.4003 34.7672 92.5671 34.3346 92.5965C33.7502 92.6361 33.1658 92.6739 32.582 92.7165H32.6066C32.5862 92.7165 32.5658 92.7165 32.5466 92.7165C32.4829 92.7212 32.4189 92.7212 32.3552 92.7165C32.2568 92.7219 32.1578 92.7297 32.0618 92.7321L28.9418 92.8323C28.4096 92.8491 27.6362 92.9859 27.2492 93.4287C27.2049 93.4728 27.1667 93.5226 27.1358 93.5769C26.5582 94.6429 25.9808 95.7091 25.4036 96.7755C24.92 97.6683 24.8066 98.6889 24.5894 99.6765C24.3866 100.599 24.1778 101.521 23.963 102.441C23.738 103.401 23.2964 104.49 23.3468 105.486C23.4008 106.545 23.4836 107.603 23.5616 108.66C23.0716 108.764 22.581 108.867 22.0898 108.97C21.7436 109.043 21.389 109.101 21.0464 109.189C21.8336 108.989 20.7758 109.236 20.5484 109.28C20.0072 109.381 19.4672 109.482 18.9284 109.583L18.1874 109.722C18.1094 109.737 17.8496 109.796 17.8496 109.796C17.5844 109.779 15.9614 109.659 15.359 109.629C15.2126 109.62 14.6282 109.48 14.8922 109.593C14.639 109.46 14.2538 109.382 14.0294 109.293C13.4746 109.076 12.92 108.859 12.3656 108.643C12.1946 108.576 12.0242 108.498 11.8502 108.441C11.7812 108.418 11.7143 108.389 11.6504 108.355C10.955 107.772 10.3052 107.122 9.63619 106.51C9.56539 106.445 9.02299 105.935 9.05479 106.02C8.84239 105.72 8.68218 105.35 8.50398 105.039C8.10078 104.333 7.63819 103.635 7.28419 102.902C6.88279 102.069 6.58938 101.168 6.24558 100.309C6.17538 100.135 6.12559 99.9063 6.01999 99.7491C6.01494 99.7399 6.0089 99.7313 6.00199 99.7233C6.10578 99.3483 6.26059 98.9787 6.38778 98.6109C6.70999 97.6839 7.14078 96.7413 7.36939 95.7861C7.36939 95.7789 7.36939 95.7777 7.36939 95.7711C7.41559 95.6907 7.45998 95.6091 7.50558 95.5275C7.77479 95.0427 8.04459 94.5585 8.31499 94.0749C8.70079 93.3819 9.10699 92.6949 9.47359 91.9917C10.184 90.6315 10.79 89.2203 11.522 87.8727C12.3482 86.3523 13.178 84.8883 14.1128 83.4327C14.3786 83.0205 14.693 82.6131 14.9192 82.1787C14.9302 82.1579 14.9426 82.1379 14.9564 82.1187C15.0356 82.0503 15.116 81.9837 15.1964 81.9165C15.983 81.2487 16.7744 80.5863 17.5568 79.9137C18.6206 78.9993 19.5446 77.9199 20.6246 77.0265C21.3878 76.3953 22.1954 75.8109 22.979 75.2049C23.0672 75.1377 23.2058 75.0651 23.2754 74.9763C23.2532 75.0045 23.2364 75.0249 23.2154 75.0465C23.2352 75.0327 23.255 75.0195 23.2802 75.0045C23.7482 74.7405 24.2078 74.4591 24.671 74.1855C26.1194 73.3329 27.4214 72.3207 28.8218 71.3925C29.975 70.6269 31.205 69.9615 32.396 69.2529C33.9422 68.3349 35.4848 67.4595 37.076 66.6219C37.1816 66.5667 37.295 66.5139 37.4072 66.4599C37.2518 66.5085 37.2902 66.4281 37.5626 66.3537C37.5974 66.3441 37.631 66.3321 37.6658 66.3225C37.7635 66.275 37.8581 66.2213 37.949 66.1617C37.8704 66.2175 37.799 66.2631 37.7336 66.3021C37.9466 66.2421 38.1596 66.1737 38.372 66.1095L39.9476 65.6337C40.1276 65.5797 40.3112 65.5311 40.4876 65.4705L40.5194 65.4603C40.487 65.4614 40.4545 65.4604 40.4222 65.4573C40.4576 65.4603 40.4984 65.4573 40.5356 65.4573C40.763 65.3871 40.7486 65.4375 40.6034 65.4573C40.8998 65.4423 41.24 65.3481 41.507 65.3127L43.2692 65.0727C43.9292 64.9833 44.5838 64.8825 45.2408 64.7817C47.1008 64.4961 52.004 63.4173 52.3394 63.3777C53.1272 63.2841 53.9162 63.1947 54.7028 63.0969C56.378 62.8869 58.0436 62.6883 59.6912 62.3217L60.4112 62.1627L60.1862 62.9709C60.0786 63.3897 59.9666 63.8067 59.8502 64.2219ZM51.2666 79.2087C50.6066 79.1919 48.956 78.9057 48.8066 78.8451L47.3144 78.2391C46.4744 77.8995 45.7718 77.4879 44.8418 77.6613C43.9574 77.8263 43.0772 78.0177 42.1946 78.1953C42.0146 78.2319 41.3888 78.3315 40.9142 78.3015L38.6258 78.1569C38.9366 77.4549 39.2258 76.6809 39.6746 76.0815C40.1852 75.4005 40.7678 74.7615 41.336 74.1189L43.6832 73.6989C44.6108 73.5321 45.44 73.2081 46.2986 72.8589C46.4044 72.9789 46.5406 73.0682 46.6928 73.1175C50.0024 74.2449 53.3066 75.3693 56.639 76.4217C56.3816 76.6983 56.0492 76.9203 55.8668 77.2515C55.2782 78.3171 53.3378 78.7611 52.4648 79.1343C52.0678 79.1887 51.6673 79.2136 51.2666 79.2087ZM50.8466 84.4137L48.362 84.3987C48.2 84.3387 48.038 84.2721 47.8652 84.2121C46.6418 83.7831 45.2816 83.0415 43.9706 83.3253C42.8972 83.5587 41.8256 83.8053 40.754 84.0531C39.494 83.7981 38.1974 83.4531 36.923 83.3799C36.1166 83.3319 35.303 83.3253 34.4924 83.3253C34.8728 83.0209 35.2528 82.7161 35.6324 82.4109C36.308 81.8709 36.7454 81.1407 37.2524 80.4399C37.3076 80.3631 37.3592 80.2893 37.4126 80.2137C38.6852 80.3121 40.019 80.5215 41.282 80.4411C42.4454 80.3673 43.6388 80.0289 44.7974 79.7601L47.5652 80.8851C48.581 81.2985 49.7888 81.1725 50.873 81.2001C51.395 81.2139 51.9374 81.2715 52.4594 81.2409C52.7642 81.2223 53.0708 81.1137 53.3696 80.9859C53.8832 81.1667 54.3966 81.3467 54.9098 81.5259L52.9298 83.5659L50.8466 84.4137ZM43.0676 92.8851C43.8938 92.8209 44.717 92.7513 45.5384 92.6685C45.7256 93.5361 45.913 94.4037 46.1006 95.2713C45.7006 95.1845 45.2994 95.0981 44.897 95.0121L43.0676 92.8851ZM39.2636 93.1179C39.617 93.0255 39.2714 93.1413 39.1544 93.1443C39.191 93.1341 39.2276 93.1263 39.2636 93.1191V93.1179ZM59.2052 60.9981C58.9832 61.0473 58.7624 61.0953 58.541 61.1463C58.4942 61.1565 58.466 61.1631 58.4366 61.1709C58.1324 61.2123 57.5828 61.2711 57.5294 61.2777C55.7046 61.5177 53.8794 61.7443 52.0538 61.9575C51.3002 62.0463 50.5904 62.2281 49.856 62.4159L48.1556 62.8509C48.0218 62.8845 47.885 62.9157 47.7512 62.9541C46.0478 63.1623 44.3528 63.4785 42.6512 63.7095C41.8436 63.8199 41.0042 63.8781 40.2158 64.0953C39.209 64.3743 38.2082 64.6953 37.2104 65.0031C35.7332 65.4591 34.2746 66.3465 32.945 67.1325C31.4382 68.0221 29.935 68.9167 28.4354 69.8163C27.02 70.6605 25.7474 71.6763 24.3692 72.5763C23.0186 73.4577 21.5912 74.1573 20.3114 75.1473C18.8671 76.273 17.4838 77.4747 16.1672 78.7473C15.0518 79.8117 13.7492 80.6907 12.6644 81.7803C12.0158 82.4319 11.576 83.3925 11.0828 84.1593C10.7348 84.6993 10.3976 85.2309 10.0904 85.7949C8.41578 88.8783 6.89299 92.0295 5.18419 95.0949C4.35439 96.5865 3.90858 98.2533 3.34938 99.8619C3.11358 100.542 3.58939 101.223 3.84379 101.86C4.11499 102.537 4.34358 103.248 4.69638 103.886C5.20338 104.804 5.73498 105.708 6.25638 106.617C6.62118 107.253 7.21159 107.682 7.75099 108.177C8.29039 108.672 8.86639 109.389 9.54139 109.712C10.4732 110.157 11.4896 110.474 12.4508 110.852C13.2062 111.147 13.9262 111.159 14.7308 111.201C15.6224 111.247 16.5908 111.413 17.4818 111.298C19.1948 111.075 20.912 110.661 22.6052 110.306L25.178 109.766C25.658 109.665 26.4032 109.295 26.3642 108.72C26.2842 107.556 26.2042 106.393 26.1242 105.23C26.1122 105.064 26.0972 104.897 26.09 104.731C26.105 104.664 26.1188 104.595 26.1374 104.529C26.3174 103.899 26.4374 103.247 26.588 102.609C26.7944 101.733 27.0002 100.857 27.1928 99.9777C27.3512 99.2577 27.5096 98.5329 27.6692 97.8117C27.713 97.6089 27.8138 97.3557 27.815 97.1469C27.815 97.132 27.8136 97.1172 27.8108 97.1025C27.8186 97.0905 27.824 97.0827 27.8348 97.0653C28.3496 96.1695 28.832 95.2515 29.3174 94.3371C30.5174 94.3011 31.7174 94.2609 32.9108 94.1787C33.8972 94.1109 34.9448 94.1355 35.9108 93.9237C36.8192 93.7257 37.7216 93.4905 38.6252 93.2739L39.1382 93.1539C39.2948 93.2139 39.5582 93.1959 39.8216 93.1593C39.8299 93.177 39.8395 93.1941 39.8504 93.2103C40.6416 94.1303 41.4328 95.0503 42.224 95.9703C42.3206 96.0831 42.4118 96.2073 42.5174 96.3111C42.7298 96.5205 42.989 96.5613 43.2608 96.6201C43.9544 96.7689 44.6486 96.9181 45.3434 97.0677C45.899 97.1877 46.4548 97.3077 47.0108 97.4277C47.5356 97.5294 48.0795 97.4434 48.5474 97.1847C48.8684 97.0125 49.2926 96.6837 49.2014 96.2625C48.9186 94.9501 48.6356 93.6377 48.3524 92.3253C50.1176 92.0637 51.8738 91.7613 53.6324 91.4553C54.1124 91.3719 55.601 90.9267 55.0916 90.1695C54.406 89.1495 53.72 88.1295 53.0336 87.1095C52.6736 86.5779 52.3026 86.0779 51.9206 85.6095C52.741 85.0535 53.4396 84.6577 54.0164 84.4221C54.4364 84.2529 54.8936 83.8821 55.2278 83.5785C55.4264 83.3985 55.6034 83.1915 55.7888 82.9995L57.6812 81.0483C57.884 80.8395 57.8162 80.6883 57.5612 80.5995L55.8446 79.9959C56.3876 79.7607 56.8988 79.4835 57.272 79.0959C58.1522 78.1857 58.9982 77.2401 59.8598 76.3131C59.9579 76.2077 60.0277 76.079 60.0624 75.9392C60.0972 75.7993 60.0959 75.653 60.0586 75.5138C60.0212 75.3747 59.9492 75.2473 59.8491 75.1436C59.7491 75.0399 59.6243 74.9634 59.4866 74.9211C56.0408 73.8573 52.6328 72.7011 49.22 71.5401C49.25 71.5203 49.28 71.5059 49.3106 71.4861L51.7106 69.8445L54.4946 69.6471C55.5968 69.5691 56.66 69.0375 57.686 68.6553C58.166 68.4753 58.667 68.3175 59.1398 68.1117C59.6798 67.8789 59.987 67.4625 60.3506 67.0317C60.8262 66.4685 61.3022 65.9049 61.7786 65.3409C62.0186 65.0553 62.291 64.8009 62.4272 64.4487C62.8646 63.3315 63.0872 62.0799 63.4076 60.9225C63.6194 60.1593 62.1572 60.3495 61.8584 60.4161L59.2052 60.9981Z" fill="black"/>
<path d="M32.3653 92.7198C32.4291 92.7163 32.493 92.7163 32.5567 92.7198C32.5671 92.7204 32.5776 92.7204 32.5879 92.7198H32.5921C32.3671 92.7025 32.3041 92.7151 32.3653 92.7198Z" fill="black"/>
<path d="M14.9157 109.605H14.9247C14.9175 109.602 14.9091 109.6 14.9019 109.596C14.9062 109.599 14.9108 109.602 14.9157 109.605" fill="black"/>
<path d="M37.6775 66.3309C37.5905 66.3765 37.5077 66.4257 37.4189 66.4683C37.5333 66.4281 37.6428 66.3752 37.7453 66.3105L37.6775 66.3309Z" fill="black"/>
<path d="M17.8584 109.8L17.8776 109.795L17.8584 109.8Z" fill="black"/>
<path d="M40.6168 65.4635C40.5934 65.4635 40.5718 65.4635 40.5496 65.4635L40.5322 65.4689C40.5605 65.4686 40.5888 65.4666 40.6168 65.4629" fill="black"/>
<path d="M23.2285 75.0527C23.0659 75.1637 23.0695 75.2381 23.2285 75.0527V75.0527Z" fill="black"/>
<path d="M41.4439 78.3338C41.5039 78.3212 41.5561 78.3032 41.6143 78.293C41.5381 78.2992 41.4627 78.3119 41.3887 78.3308H41.4439" fill="black"/>
<path d="M113.695 26.008C113.233 26.3734 112.707 26.7154 112.283 27.1252C111.793 27.5998 111.949 28.474 111.917 29.1136C111.864 30.1612 111.81 31.2084 111.756 32.2552C111.745 32.4544 111.721 32.6578 111.725 32.8552C111.643 32.9752 111.567 33.1018 111.485 33.2254L109.788 35.8792L109.135 36.8992C109.084 36.9784 108.973 37.0924 108.951 37.1854C108.948 37.1971 108.946 37.2092 108.946 37.2214C107.746 38.4664 106.41 39.604 105.152 40.7884C104.982 40.9486 104.7 41.218 104.952 41.4484L109.324 45.4888C109.559 45.7054 109.834 45.9136 110.044 46.1548C110.044 46.1608 110.044 46.1626 110.04 46.1698C110.04 46.3438 110.04 46.5172 110.044 46.69C110.048 47.4048 110.052 48.1198 110.056 48.835C109.18 48.915 108.304 48.995 107.428 49.075L105.508 47.9284L103.963 47.0062C103.795 46.9054 103.612 46.7614 103.429 46.6864C103.391 46.6714 103.231 46.5616 103.219 46.5808C103.08 46.384 102.969 46.1212 102.859 45.9316C102.556 45.4192 102.253 44.906 101.95 44.392L100.583 42.0772C100.502 41.9392 100.357 41.8564 100.182 41.8078C100.365 41.3238 100.547 40.8396 100.731 40.3552L101.511 38.2822C101.847 38.1722 102.162 38.0069 102.444 37.7932C103.113 37.2754 103.764 36.7318 104.42 36.2008C104.996 35.737 105.594 35.2906 106.152 34.8046C106.527 34.4782 106.759 34.0048 107.027 33.5902C107.543 32.7962 108.059 31.9992 108.575 31.1992C108.815 30.8296 109.118 30.4588 109.25 30.0382C109.738 28.4926 109.97 26.8204 110.32 25.2382C110.514 24.3718 107.784 24.802 107.599 25.6348C107.376 26.6348 107.153 27.6348 106.931 28.6348C106.807 29.1874 106.641 29.7472 106.557 30.307C106.549 30.3616 106.504 30.517 106.503 30.5614C106.469 30.6106 106.433 30.6592 106.402 30.7066C105.713 31.773 105.024 32.8394 104.336 33.9058C104.216 34.0906 104.08 34.2736 103.976 34.4668C103.949 34.5178 103.93 34.5472 103.916 34.5706C103.621 34.8106 103.324 35.047 103.029 35.2858C102.189 35.9614 101.35 36.6374 100.512 37.3138C99.6124 37.5138 98.7124 37.7138 97.8116 37.9138C96.8288 38.131 95.2868 38.227 94.7144 39.151C93.4598 41.1772 92.4068 43.3576 91.2602 45.4468C91.1252 45.694 90.8732 46.0048 90.8036 46.2802C90.7436 46.5202 90.836 46.8124 90.8732 47.05C91.084 48.4176 91.2946 49.7844 91.505 51.1504C91.5542 51.4672 91.6136 51.7846 91.6538 52.1038C91.6558 52.1745 91.6534 52.2452 91.6466 52.3156C91.6082 52.576 91.5794 52.8388 91.5458 53.0998C91.3726 54.4526 91.1992 55.8048 91.0256 57.1564C90.914 58.0252 90.5816 58.8124 90.2954 59.6422L89.1554 62.9422L87.0302 64.5382C86.7692 62.9422 86.4902 61.336 86.4014 59.7334C86.273 57.3754 86.2442 55.0588 85.7636 52.7488C85.4726 51.3484 84.9428 49.309 84.5948 48.2836C84.4276 47.2996 84.2598 46.3162 84.0914 45.3334C84.0622 45.1662 84.0334 44.9988 84.005 44.8312C83.9804 44.686 83.705 44.6512 83.6102 44.6422C83.3389 44.6255 83.0667 44.6568 82.8062 44.7346C82.5506 44.8072 82.2764 44.8954 82.0622 45.0562C81.9506 45.1414 81.788 45.2554 81.8156 45.4162C82.0096 46.551 82.2034 47.6848 82.397 48.8176C82.3499 48.8552 82.3049 48.8952 82.262 48.9376L79.2116 52.4116C78.9668 52.6916 78.7224 52.9702 78.4784 53.2474C78.449 53.2798 78.4274 53.3014 78.4034 53.3272C77.888 53.5888 77.387 53.9902 76.913 54.2872C75.7046 55.0438 74.3576 55.723 73.2422 56.6152C72.602 57.1288 71.9996 57.6952 71.3822 58.2352C71.2916 58.3144 70.5026 59.0824 70.0622 59.4448C69.9422 59.4982 69.8186 59.5534 69.6968 59.6062C69.2252 59.8138 68.7536 60.022 68.282 60.2308L66.8762 60.8506L63.6722 60.0784C64.9436 58.9204 66.2258 57.772 67.4666 56.5828C68.927 55.1848 70.274 53.5696 71.5832 52.0276C72.8534 50.5276 74.0192 48.931 75.2342 47.3878C76.4492 45.8446 77.6942 44.3182 78.8888 42.757C80.0834 41.1958 81.1952 39.577 82.3616 37.9948C83.5502 36.3838 84.8216 34.8316 85.9904 33.2074C87.1448 31.6042 88.0808 29.7958 89.0984 28.1008C90.137 26.3686 90.998 24.5152 91.9328 22.7248C92.8442 20.9794 93.5528 19.111 94.3394 17.308C95.1194 15.5188 95.9468 13.7476 96.755 11.968L97.88 11.9218L99.8 11.8408C100.133 11.827 100.536 11.8684 100.872 11.8054C101.008 11.839 101.161 11.8534 101.292 11.8774L102.972 12.1774C104.011 12.3634 105.068 12.6268 106.119 12.7438C106.233 12.7992 106.351 12.8477 106.471 12.889L107.988 13.5256C109.004 13.951 110.032 14.4994 111.083 14.8228L111.102 14.8288C111.186 14.8948 111.267 14.9614 111.349 15.028C111.762 15.3604 112.175 15.6932 112.588 16.0264C113.472 16.738 114.334 17.5702 115.281 18.1948C115.323 18.2243 115.364 18.2574 115.401 18.2938C115.446 18.4006 115.48 18.52 115.521 18.6232L116.169 20.3824C116.517 21.3284 116.865 22.2748 117.214 23.2216C116.04 24.1504 114.867 25.0792 113.693 26.008H113.695ZM111.75 32.8192C111.742 32.83 111.737 32.8408 111.73 32.851C111.742 32.7214 111.865 32.653 111.75 32.8192ZM104.656 52.7656C104.752 52.8436 104.964 52.9582 105.049 53.0728C105.002 53.0614 105.023 53.4064 105.024 53.4484C105.024 53.74 105.029 54.0304 105.032 54.3214C105.032 54.5566 104.988 54.8686 105.04 55.1014C105.045 55.1281 105.047 55.1553 105.046 55.1824C104.762 55.3588 104.495 55.5628 104.25 55.7914C104.263 55.5772 104.277 55.363 104.291 55.1476C104.301 55.0537 104.283 54.9591 104.239 54.8754C104.196 54.7917 104.128 54.7228 104.046 54.6772L101.411 53.017C100.864 52.6718 100.318 52.3274 99.773 51.9838C99.6368 51.898 99.5024 51.8038 99.362 51.7252H99.3578C99.3551 51.7215 99.3521 51.7181 99.3488 51.715C98.4734 50.815 97.511 49.9906 96.5972 49.135C96.4092 48.9598 96.222 48.7842 96.0356 48.6082C96.0068 48.5818 95.9102 48.4762 95.8502 48.4222C95.8364 48.3484 95.8082 48.238 95.8016 48.2002C95.7542 47.9284 95.7062 47.6602 95.6594 47.3848C95.4382 46.1272 95.2182 44.8694 94.9994 43.6114C94.9847 43.531 94.9482 43.4563 94.8938 43.3954L97.1384 39.2992L99.3038 38.8192C98.8436 40.0288 98.3792 41.2372 97.9328 42.4522C97.8452 42.5488 97.8086 42.6472 97.826 42.739C97.7888 42.8392 97.7498 42.9394 97.7138 43.039C97.5482 43.501 97.739 43.822 97.8884 44.2954C98.2036 45.2954 98.5188 46.2968 98.834 47.2996C98.969 47.7292 99.02 48.1618 99.3524 48.4648C99.9332 48.9922 100.581 49.4614 101.19 49.9552L103.697 51.9886C104.017 52.249 104.337 52.509 104.657 52.7686L104.656 52.7656ZM105.079 55.1578L105.07 55.1644C105.114 55.0618 105.182 55.0984 105.079 55.1578ZM99.0554 58.6834C98.867 58.6432 98.6792 58.5964 98.4896 58.5634C98.4674 58.5592 98.3942 58.5412 98.3342 58.5262C98.2832 58.4992 98.2238 58.4662 98.2016 58.4548C98.0378 58.3516 97.868 58.2574 97.7018 58.1548L96.0938 57.199L93.8834 55.8868C93.9908 55.0468 94.076 54.2068 94.1834 53.371C94.2776 52.6348 94.469 51.8746 94.3544 51.1354C94.2744 50.6266 94.196 50.1184 94.1192 49.6108C94.1426 49.6324 94.1666 49.6522 94.1912 49.6756C95.1752 50.5984 96.1592 51.5218 97.1432 52.4458C97.7156 52.9858 98.3954 53.3554 99.0596 53.7742L102.07 55.6714L101.847 59.2804L100.878 59.0728L99.0554 58.6834ZM78.3968 53.3344C78.1988 53.5402 78.2036 53.4598 78.3968 53.3344V53.3344ZM69.7772 59.6344C69.8257 59.6003 69.8776 59.5713 69.932 59.548C69.8552 59.6044 69.794 59.644 69.7772 59.6344ZM120.036 22.7164C119.712 21.8392 119.39 20.9624 119.07 20.086C118.766 19.2592 118.556 18.2158 118.104 17.4586C117.942 17.1874 117.631 17.0086 117.389 16.8136L115.923 15.6328C115.162 15.0202 114.423 14.3008 113.604 13.7644C112.896 13.2982 111.973 13.0474 111.195 12.721C110.235 12.319 109.275 11.8336 108.291 11.503C107.511 11.2426 106.629 11.1808 105.825 11.0374C104.724 10.8394 103.621 10.5946 102.514 10.4434C101.6 10.3198 100.608 10.4752 99.6938 10.5136L96.3302 10.6546C95.7104 10.6804 94.706 10.8988 94.4102 11.542C92.7452 15.2074 91.1816 18.9268 89.4902 22.5778C88.6502 24.3856 87.6218 26.11 86.7248 27.8908C86.7014 27.937 86.681 27.9766 86.6648 28.0072C86.624 28.0738 86.5844 28.1404 86.5448 28.2064C86.2552 28.6864 85.9654 29.1664 85.6754 29.6464C85.0274 30.7198 84.3872 31.7986 83.7308 32.8678C82.706 34.5328 81.3548 36.0478 80.1734 37.6042C79.001 39.1504 77.8802 40.7386 76.7372 42.3076C74.4482 45.4492 71.9216 48.448 69.5186 51.5044C68.3228 53.0248 66.9596 54.4204 65.6672 55.8604C65.5412 56.0008 65.411 56.1388 65.2874 56.2804L65.204 56.377L64.4924 57.031C63.4984 57.9462 62.5036 58.861 61.508 59.7754L60.8516 60.3796C60.4352 60.763 60.5126 61.0696 61.0724 61.2046L63.7928 61.8598C64.9184 62.131 65.9834 62.5672 67.127 62.1244C68.0108 61.7818 68.867 61.3552 69.7376 60.973C70.4798 60.6454 71.3906 60.3682 72.0296 59.857C72.863 59.1904 73.6496 58.4488 74.4524 57.748C74.7488 57.49 75.212 57.208 75.4412 56.8876C75.4435 56.884 75.4453 56.8802 75.4466 56.8762L75.6614 56.7424L78.6974 54.8428C79.3646 54.4228 80.1974 54.04 80.7596 53.479C81.404 52.8364 82.013 52.1476 82.6112 51.4486C82.7064 51.9074 82.802 52.3674 82.898 52.8286C83.078 53.7016 83.3534 54.5944 83.4008 55.4878C83.5262 57.8074 83.5808 60.127 83.909 62.4262C84.1146 63.8594 84.3204 65.2922 84.5264 66.7246C84.6464 67.5544 86.6462 66.7564 86.9726 66.5116L89.5028 64.6114L91.0628 63.4402C91.3496 63.2254 91.6628 63.0394 91.8272 62.7118C92.3306 61.7182 92.5874 60.5086 92.951 59.458C93.131 58.9312 93.3602 58.396 93.5276 57.853C93.8132 58.0222 94.0988 58.1932 94.385 58.3624C95.1704 58.8286 95.978 59.4562 96.8282 59.7952C97.6496 60.1222 98.6438 60.2056 99.5054 60.3898C100.415 60.5858 101.324 60.781 102.232 60.9754C102.738 61.0834 103.941 60.9112 103.985 60.1984C104.047 59.194 104.11 58.189 104.172 57.1834C104.472 57.0988 104.766 56.9734 104.977 56.7886L106.878 55.1344C107.092 54.9472 107.188 54.8746 107.238 54.5944C107.316 54.1396 107.227 53.5906 107.223 53.1262C107.22 52.8862 107.274 52.5748 107.151 52.3702C107.062 52.2232 106.791 52.0774 106.66 51.973L104.455 50.1838L102.846 48.8794C103.4 49.2094 103.954 49.5398 104.508 49.8706C104.908 50.1106 105.342 50.4538 105.818 50.4844C106.284 50.5144 106.794 50.419 107.258 50.3764L111.224 50.0086C111.719 49.9636 112.809 49.6312 112.806 48.982C112.8 47.9736 112.794 46.9652 112.789 45.9568C112.789 45.6616 112.834 45.4336 112.669 45.1924C112.503 44.9512 112.189 44.7472 111.973 44.5492L107.773 40.666L109.846 38.7142C110.455 38.1418 111.189 37.597 111.646 36.889C112.409 35.6986 113.172 34.5088 113.934 33.3196C114.097 33.067 114.378 32.7514 114.461 32.4556C114.573 32.062 114.51 31.531 114.53 31.1254C114.597 29.821 114.663 28.5164 114.729 27.2116L119.76 23.2318C119.88 23.137 120.12 22.9024 120.05 22.711L120.036 22.7164Z" fill="black"/>
<path d="M97.2477 38.8072C97.0001 37.1748 96.7529 35.5424 96.5061 33.91L96.4011 33.2146C96.3411 32.8078 95.6163 32.8546 95.3475 32.935C95.0133 33.034 94.5117 33.2782 94.5765 33.7036C94.8233 35.3364 95.0705 36.9686 95.3181 38.6002C95.3529 38.8324 95.3889 39.064 95.4237 39.2956C95.4837 39.7024 96.2079 39.6556 96.4755 39.5758C96.8109 39.4762 97.3125 39.2326 97.2477 38.8072Z" fill="black"/>
<path d="M47.5627 18.4657L46.4713 13.7203L45.0889 9.08594L44.1115 13.8169L42.9007 18.5335L41.1553 21.5119L38.3593 23.4319L34.1533 25.1965L38.4733 26.6665L41.0767 28.9489L43.1083 31.8079L43.6807 36.6787L45.0889 41.3497L45.9625 36.5503L47.5087 31.9135L49.1101 28.9579L51.8209 26.9659L55.7275 25.1965L51.8797 23.2735L48.8263 21.6817L47.5627 18.4657Z" fill="#5CFFE4"/>
<path d="M47.9943 29.2197C47.5257 29.8737 47.1969 30.6915 46.8135 31.3983C46.6011 31.7907 46.4217 32.1321 46.2813 32.5515C45.8193 33.9387 45.2451 35.3319 44.8845 36.7515C44.8701 36.6993 44.8521 36.6471 44.8383 36.5949C44.4819 35.2695 44.4705 33.7881 44.3097 32.4261C44.2497 31.8909 44.2533 31.5861 43.9497 31.1583C43.4133 30.4029 42.8811 29.6439 42.3399 28.8921C42.0399 28.4721 41.6463 28.1721 41.2599 27.8337C40.7091 27.3507 40.1439 26.6799 39.5133 26.3025C39.1053 26.0577 38.3885 25.8107 37.3629 25.5615C39.3229 24.4591 40.4779 23.7879 40.8279 23.5479C41.3601 23.1825 41.8311 21.8205 42.2415 21.3087C42.7257 20.7045 43.0659 19.9017 43.4565 19.2339C43.7055 18.8103 43.9533 18.4479 44.0745 17.9739C44.4477 16.5225 44.8545 15.0753 45.1935 13.6149C45.2055 13.5651 45.2139 13.5135 45.2253 13.4643C45.2763 13.6443 45.3297 13.8279 45.3783 14.0115C45.7941 15.5781 46.1067 17.1777 46.4697 18.7575C46.8537 19.7349 47.2113 20.7273 47.6229 21.6933C47.9391 22.4397 49.1151 22.7397 49.8003 23.0997C51.3045 23.8839 52.3803 24.3033 53.9013 25.0605C52.8447 25.5213 51.7761 25.9683 50.7555 26.4933C50.4421 26.6613 50.1436 26.8558 49.8633 27.0747C49.5717 27.2931 48.3333 28.7493 47.9943 29.2197ZM40.1475 21.5853C40.0959 21.7623 40.0947 21.6573 40.1523 21.5739C40.1511 21.5775 40.1487 21.5817 40.1475 21.5853ZM40.2033 21.5253C40.2285 21.5077 40.2595 21.5008 40.2897 21.5061C40.2598 21.5047 40.23 21.5111 40.2033 21.5247V21.5253ZM51.9945 22.4253L50.3103 21.5457C50.2035 21.4899 50.0193 21.4257 49.9089 21.3459C49.9365 21.3459 49.8339 21.1689 49.8111 21.1059C49.4469 20.1201 49.0419 19.1475 48.6573 18.1695C48.2973 16.5897 47.9775 14.9895 47.5665 13.4241C47.1573 11.8671 46.6443 10.3323 46.1865 8.78968C46.0479 8.32228 44.0991 8.86408 44.0139 9.27748C43.4367 12.0711 42.8259 14.8287 42.1161 17.5917C42.0057 18.0237 41.9361 18.4809 41.7363 18.8793C41.3433 19.6593 40.8417 20.4051 40.3989 21.1593C40.3347 21.2691 40.2189 21.4137 40.1685 21.5415C39.9525 21.6549 39.5841 21.9891 39.4827 22.0593C38.8617 22.4847 38.2323 22.9023 37.6179 23.3391C37.607 23.3448 37.5955 23.3496 37.5837 23.3535C37.4295 23.4093 37.2801 23.4813 37.1295 23.5443L35.7033 24.1443L33.5283 25.0563C33.3099 25.1481 32.8083 25.4613 33.2565 25.6143C34.6365 26.0835 36.1617 26.4261 37.4757 27.0507L37.5219 27.0717C37.4919 27.0585 37.4469 27.0405 37.4715 27.0579C37.5501 27.1179 37.6215 27.1899 37.6947 27.2553C38.0463 27.5625 38.3969 27.8697 38.7465 28.1769C39.0597 28.4505 39.3723 28.7243 39.6843 28.9983C39.9165 29.2017 39.9999 29.2701 40.0641 29.3499C40.5945 30.0183 41.0607 30.7527 41.5557 31.4499C41.8665 31.8885 42.0111 32.0547 42.0717 32.5671C42.2433 34.0251 42.2931 35.5599 42.5973 36.9957C42.9291 38.5611 43.5357 40.1091 43.9983 41.6433C44.1375 42.1059 46.0983 41.5713 46.1715 41.1555C46.4403 39.6755 46.7089 38.1985 46.9773 36.7245C47.2101 35.4441 47.7651 34.1943 48.1773 32.9637C48.5973 31.7037 49.1757 30.6429 49.8111 29.4699C49.8369 29.4225 50.1237 28.9713 50.1819 28.8189C50.3061 28.7301 50.4279 28.6341 50.5485 28.5453C51.1971 28.0683 51.9729 27.6303 52.5531 27.0717C52.5645 27.0603 52.5687 27.0549 52.5777 27.0465L52.8435 26.9265L54.1941 26.3145C54.9165 25.9881 55.6387 25.6609 56.3607 25.3329C56.4423 25.2969 57.0435 24.9651 56.7645 24.8247C55.1703 24.0309 53.5713 23.2461 51.9945 22.4241V22.4253Z" fill="black"/>
<path d="M90.7765 84.9709L89.9473 81.3115L88.8253 77.7637L88.1101 81.4093L87.1603 85.0399L83.6431 88.8139L80.2969 90.1681L83.6635 91.4665L87.2479 95.2741L87.7537 99.0121L88.8253 102.305L89.9731 99.0301L90.5839 95.3179L93.8749 91.1779L97.3687 90.1681L94.0513 88.7047L90.7765 84.9709Z" fill="#5CFFE4"/>
<path d="M91.392 93.1405C90.9292 93.7233 90.4658 94.3061 90.0018 94.8889C89.829 95.1073 89.5914 95.3299 89.4936 95.5867C89.2758 96.1597 89.2734 96.9211 89.1744 97.5247C89.0934 98.0119 89.037 98.5195 88.9344 99.0061C88.9176 98.9461 88.8972 98.8813 88.8816 98.8183C88.6164 97.7725 88.5666 96.6355 88.4214 95.5657C88.377 95.2345 88.3746 95.0491 88.1814 94.7983C87.8394 94.3591 87.4014 93.9685 87.0198 93.5647C86.489 92.9999 85.9582 92.4359 85.4274 91.8727C85.2036 91.6327 84.966 91.2775 84.6936 91.0927C84.386 90.8867 83.826 90.6703 83.0136 90.4435C84.5336 89.2987 85.5418 88.4605 86.0382 87.9289L87.4638 86.3989C87.672 86.1757 87.8328 86.0221 87.9366 85.7389C88.2312 84.9427 88.7928 82.9789 88.9854 82.1239C89.2422 83.1613 89.4468 84.2179 89.6826 85.2595C89.6958 85.3004 89.7241 85.3348 89.7618 85.3555C90.789 86.5279 91.7676 87.7705 92.856 88.8829C93.0924 89.1229 93.5366 89.3571 94.1886 89.5855C93.3738 90.6323 92.8538 91.2973 92.6286 91.5805C92.2162 92.1013 91.804 92.6213 91.392 93.1405ZM96.252 88.8493C95.7858 88.6435 95.2764 88.5073 94.92 88.1467C93.84 87.0583 92.88 85.8277 91.8708 84.6727C91.5954 83.4577 91.368 82.2205 91.0416 81.0187C90.7152 79.8169 90.294 78.6511 89.9214 77.4703C89.7744 77.0059 87.8298 77.5429 87.7476 77.9593C87.324 80.1193 86.8686 82.2313 86.3112 84.3595C86.2458 84.6097 86.172 84.8581 86.115 85.1107C86.1066 85.1376 86.1038 85.166 86.1066 85.1941C86.1012 85.2013 86.0976 85.2037 86.0904 85.2139C85.77 85.6381 85.3464 86.0125 84.9834 86.4019C84.2474 87.1923 83.5106 87.9831 82.773 88.7743L79.9212 89.9275C79.8774 89.9455 78.9012 90.3985 79.266 90.5389C80.3142 90.9433 81.438 91.2727 82.446 91.7659C83.2122 92.1409 83.8452 93.1261 84.426 93.7423C84.8988 94.2451 85.3718 94.7475 85.845 95.2495C85.9416 95.3527 86.1138 95.4799 86.1804 95.6095C86.2404 95.7235 86.1342 95.5249 86.1594 95.6047C86.1806 95.6842 86.1917 95.766 86.1924 95.8483C86.223 96.5293 86.379 97.2283 86.4702 97.9027C86.5302 98.3647 86.5572 98.8537 86.661 99.3091C86.9142 100.42 87.381 101.518 87.7332 102.602C87.8946 103.097 89.7732 102.504 89.907 102.115C90.2724 101.069 90.7008 100.027 91.0098 98.9641C91.3056 97.9441 91.386 96.8179 91.56 95.7667C91.6092 95.4667 91.6242 95.2393 91.7724 94.9921C92.0574 94.5187 92.4924 94.0921 92.8326 93.6577C93.4582 92.8705 94.0838 92.0833 94.7094 91.2961C95.6254 91.0321 96.542 90.7673 97.4592 90.5017C97.4766 90.4975 98.8092 89.9803 98.4024 89.8003L96.252 88.8493Z" fill="black"/>
</g>
<defs>
<clipPath id="clip0_24172_105431">
<rect width="120" height="120" fill="white" transform="translate(0.75)"/>
</clipPath>
</defs>
</svg>
